<svg width="595" height="104" viewBox="0 0 595 104" fill="none" xmlns="http://www.w3.org/2000/svg">
<path d="M595 102H0V104H595V102Z" fill="#E6E6E6"/>
<path d="M64.4242 53.9849C63.1572 45.8219 60.6842 37.8909 57.0862 30.4529L56.5622 29.3689L52.6672 33.6839L55.5532 27.2569L55.3642 26.8849C52.8172 21.8479 49.9942 16.9559 46.9092 12.2299L46.3372 11.3549L45.5732 12.1999L46.1082 11.0099L45.8402 10.6089C42.0188 4.88289 39.0829 1.26188 39.0538 1.22488L38.2235 0.204895L37.6895 1.42191C37.5916 1.64491 27.8878 23.9809 26.6024 46.0529L26.5821 46.3969L33.113 54.2829L26.4526 50.1059L26.4642 51.6219C26.4844 54.2159 26.6612 56.8059 26.9934 59.3789C27.2867 61.5919 27.632 63.7529 28.0291 65.8609C28.6587 65.8809 29.2711 66.0719 29.8001 66.4129C29.34 64.0569 28.9433 61.6359 28.6098 59.1499C28.3525 57.1649 28.1904 55.1479 28.1259 53.1369L41.0086 61.2169L28.251 45.8119C29.4125 27.1509 36.622 8.34991 38.646 3.38791C39.7323 4.79491 41.7815 7.52691 44.2328 11.1769L39.7765 21.1009L46.1302 14.0639C48.8842 18.3469 51.4212 22.7649 53.7322 27.3029L46.8702 42.5839L56.1482 32.3069C59.3882 39.2679 61.6322 46.6509 62.8112 54.2369C64.4352 66.4899 64.1182 78.2609 61.9182 87.3809C59.8122 96.1179 56.0982 101.489 51.7302 102.116C50.8312 102.24 49.9172 102.186 49.0392 101.956C48.3352 102.456 47.4882 102.714 46.6242 102.692H46.3862C47.7412 103.444 49.2602 103.851 50.8092 103.879C51.1922 103.879 51.5742 103.852 51.9532 103.797C57.0882 103.06 61.1902 97.3769 63.5002 87.7949C65.7492 78.4679 66.0792 66.4679 64.4242 53.9849Z" fill="#E6E6E6"/>
<path d="M50.0522 103.234C43.3347 103.234 33.6497 99.5429 24.0434 92.8239C22.6295 91.8269 21.2793 90.7419 20.0009 89.5769L18.925 88.5949L22.993 87.4249L17.5762 87.2269L17.3477 86.9879C7.19427 76.3649 0.875976 61.3609 0.813076 61.2119L0.319275 60.0259L1.60318 60.0849C1.73098 60.0899 4.78318 60.2339 9.37048 60.8839L9.65638 60.9249V60.9219L10.6623 61.0749C14.4082 61.6439 18.1191 62.4229 21.7773 63.4079L22.1679 63.5139L23.3884 66.5169L23.2033 63.8239L24.323 64.1469C29.6303 65.6769 34.6711 68.0109 39.2696 71.0689C53.8782 81.2869 61.9622 94.0589 57.6892 100.155C56.2282 102.238 53.5392 103.233 50.0522 103.234ZM22.2077 89.3459C23.1001 90.1009 24.0287 90.8199 24.9812 91.4899C38.3612 100.85 52.7272 104.389 56.3522 99.2209C59.9762 94.0509 51.7322 81.7749 38.35 72.4149C34.2215 69.6709 29.7236 67.5279 24.9911 66.0489L25.7147 76.5709L20.9617 64.8769C17.8315 64.0469 14.6291 63.3649 11.4232 62.8429L11.9484 70.4809L8.67707 62.4319C6.14257 62.0849 4.09938 61.8959 2.85658 61.7999C4.55097 65.5169 10.1497 76.9939 18.2997 85.6229L33.2482 86.1699L22.2077 89.3459Z" fill="#E6E6E6"/>
</svg>
