<svg width="541" height="74" viewBox="0 0 541 74" fill="none" xmlns="http://www.w3.org/2000/svg">
<path d="M541 71.6631H0V73.6631H541V71.6631Z" fill="#E6E6E6"/>
<path d="M452.065 41.1701C454.553 42.0451 457.224 42.2641 459.821 41.8061C462.418 41.3491 464.854 40.2301 466.894 38.5581C472.088 34.1991 473.715 27.0181 475.041 20.3711L478.959 0.703125L470.755 6.35013C464.855 10.4131 458.821 14.6051 454.736 20.4891C450.651 26.3731 448.867 34.4061 452.15 40.7731" fill="#E6E6E6"/>
<path d="M453.332 66.3499C452.297 58.8269 451.237 51.2089 451.962 43.6039C452.606 36.8509 454.666 30.2559 458.861 24.8479C461.087 21.9819 463.797 19.5279 466.867 17.5929C467.669 17.0879 468.405 18.3569 467.607 18.8599C462.295 22.2169 458.186 27.1739 455.873 33.0169C453.318 39.5139 452.908 46.5959 453.348 53.4989C453.616 57.6719 454.179 61.8189 454.747 65.9599C454.792 66.1479 454.764 66.3449 454.669 66.5119C454.574 66.6799 454.419 66.8049 454.235 66.8619C454.048 66.9139 453.848 66.8879 453.678 66.7919C453.509 66.6959 453.385 66.5379 453.333 66.3499H453.332Z" fill="#F2F2F2"/>
<path d="M447.478 55.1131C446.211 56.6091 444.58 57.7551 442.741 58.4381C440.903 59.1211 438.92 59.3191 436.982 59.0141C432.011 58.1711 428.265 54.1761 424.914 50.4091L415 39.2661L422.389 39.8041C427.702 40.1911 433.15 40.6121 437.984 42.8501C442.818 45.0891 446.984 49.5711 447.273 54.8901" fill="#E6E6E6"/>
<path d="M455.984 70.651C454.242 66.459 452.486 62.208 449.813 58.505C447.52 55.151 444.319 52.518 440.584 50.917C438.569 50.112 436.43 49.665 434.261 49.596C433.696 49.577 433.699 50.455 434.261 50.473C438.017 50.598 441.635 51.913 444.595 54.227C447.878 56.806 450.231 60.335 452.092 64.028C453.216 66.261 454.179 68.57 455.138 70.878C455.172 70.988 455.246 71.081 455.345 71.138C455.444 71.196 455.561 71.214 455.673 71.188C455.785 71.158 455.881 71.084 455.939 70.984C455.997 70.883 456.014 70.764 455.984 70.651Z" fill="#F2F2F2"/>
<path d="M460.765 54.2809C461.832 55.9019 463.298 57.2219 465.024 58.1119C466.749 59.0019 468.674 59.4329 470.614 59.3619C475.6 59.1259 479.757 55.6459 483.499 52.3419L494.566 42.5709L487.242 42.2209C481.974 41.9689 476.571 41.7329 471.553 43.3569C466.536 44.9819 461.909 48.8909 460.991 54.0829" fill="#E6E6E6"/>
<path d="M450.412 70.675C455.383 61.879 461.151 52.1031 471.454 48.9791C474.319 48.1131 477.323 47.8031 480.305 48.0651C481.244 48.1461 481.01 49.594 480.072 49.513C475.075 49.098 470.087 50.418 465.948 53.25C461.966 55.96 458.865 59.7281 456.24 63.7251C454.635 66.1731 453.193 68.7241 451.752 71.2731C451.292 72.0871 449.947 71.499 450.412 70.675Z" fill="#F2F2F2"/>
<path d="M528.042 56.9659C526.122 57.6409 524.06 57.8099 522.056 57.4569C520.052 57.1039 518.172 56.2409 516.598 54.9509C512.59 51.5869 511.333 46.0449 510.312 40.9139L507.288 25.7349L513.62 30.0949C518.173 33.2299 522.829 36.4649 525.982 41.0059C529.134 45.5469 530.511 51.7459 527.978 56.6589" fill="#E6E6E6"/>
<path d="M526.293 71.373C526.85 67.316 527.423 63.207 527.032 59.108C526.778 55.452 525.488 51.943 523.312 48.994C522.111 47.449 520.65 46.125 518.995 45.082C518.563 44.81 518.166 45.494 518.594 45.765C521.458 47.575 523.674 50.248 524.921 53.399C526.299 56.903 526.52 60.721 526.283 64.443C526.139 66.694 525.835 68.93 525.528 71.162C525.504 71.263 525.519 71.37 525.571 71.46C525.622 71.55 525.705 71.617 525.804 71.648C525.906 71.675 526.013 71.661 526.104 71.609C526.195 71.558 526.262 71.473 526.291 71.372L526.293 71.373Z" fill="#F2F2F2"/>
</svg>
