<svg width="400" height="291" viewBox="0 0 400 291" fill="none" xmlns="http://www.w3.org/2000/svg">
<path d="M400 289.442H0V290.785H400V289.442Z" fill="#0A2647"/>
<path d="M43.3104 257.21C42.4587 251.73 40.7961 246.406 38.3773 241.413L38.025 240.685L35.4066 243.582L37.3467 239.267L37.2197 239.018C35.5074 235.636 33.6096 232.352 31.5356 229.18L31.1511 228.592L30.6375 229.16L30.9971 228.361L30.817 228.092C28.248 224.248 26.2743 221.817 26.2547 221.792L25.6965 221.108L25.3375 221.925C25.2717 222.074 18.7481 237.068 17.884 251.885L17.8703 252.116L22.2609 257.41L17.7833 254.606L17.7911 255.624C17.8047 257.365 17.9235 259.104 18.1469 260.831C18.344 262.316 18.5762 263.767 18.8431 265.182C19.2664 265.196 19.6781 265.324 20.0337 265.553C19.7244 263.971 19.4577 262.346 19.2335 260.677C19.0605 259.345 18.9516 257.991 18.9082 256.641L27.5688 262.065L18.9923 251.723C19.7731 239.196 24.6199 226.575 25.9805 223.244C26.7108 224.189 28.0884 226.023 29.7364 228.473L26.7405 235.135L31.0119 230.411C32.8634 233.286 34.5689 236.252 36.1225 239.298L31.5094 249.556L37.7467 242.657C39.9249 247.33 41.4334 252.287 42.226 257.379C43.3178 265.604 43.1047 273.506 41.6257 279.628C40.2099 285.494 37.7131 289.099 34.7766 289.52C34.1723 289.603 33.5578 289.567 32.9676 289.413C32.4943 289.748 31.9249 289.921 31.344 289.907H31.184C32.095 290.412 33.1161 290.685 34.1575 290.704C34.415 290.704 34.6718 290.685 34.9266 290.648C38.3787 290.154 41.1363 286.339 42.6892 279.906C44.2012 273.645 44.423 265.59 43.3104 257.21Z" fill="#0A2647"/>
<path d="M33.6485 290.27C29.1325 290.27 22.6216 287.793 16.1636 283.282C15.2131 282.613 14.3054 281.885 13.446 281.103L12.7227 280.443L15.4575 279.658L11.8159 279.525L11.6623 279.365C4.83648 272.233 0.588883 262.161 0.546597 262.061L0.21463 261.265L1.07776 261.305C1.16367 261.308 3.21557 261.405 6.29947 261.841L6.49167 261.869V261.867L7.16791 261.969C9.68616 262.351 12.1809 262.874 14.6402 263.535L14.9028 263.607L15.7233 265.622L15.5988 263.815L16.3516 264.031C19.9195 265.059 23.3083 266.625 26.3997 268.678C36.2206 275.538 41.6552 284.111 38.7826 288.204C37.8004 289.602 35.9927 290.27 33.6485 290.27ZM14.9295 280.947C15.5295 281.454 16.1537 281.937 16.7941 282.387C25.789 288.67 35.4468 291.046 37.8838 287.577C40.3201 284.106 34.7779 275.865 25.7815 269.582C23.006 267.74 19.9822 266.301 16.8007 265.308L17.2872 272.372L14.0919 264.522C11.9875 263.964 9.83466 263.507 7.67944 263.156L8.03251 268.283L5.83332 262.88C4.12945 262.647 2.75587 262.52 1.92038 262.456C3.05947 264.951 6.82331 272.656 12.3023 278.448L22.3517 278.815L14.9295 280.947Z" fill="#0A2647"/>
<path d="M68.4327 282.325H75.7934L79.2949 254.007L68.4321 254.008L68.4327 282.325Z" fill="#A0616A"/>
<path d="M66.5557 279.928L81.0506 279.928H81.0513C83.501 279.928 85.8503 280.899 87.5826 282.627C89.3149 284.354 90.2882 286.698 90.2889 289.142V289.441L66.5564 289.442L66.5557 279.928Z" fill="#0A2647"/>
<path d="M117.054 282.325H124.414L127.916 254.007L117.053 254.008L117.054 282.325Z" fill="#A0616A"/>
<path d="M115.176 279.928L129.671 279.928H129.672C132.122 279.928 134.472 280.899 136.204 282.627C137.936 284.354 138.91 286.698 138.91 289.142V289.441L115.177 289.442L115.176 279.928Z" fill="#0A2647"/>
<path d="M62.2705 276.184H81.3367L93.5231 169.749L115.929 276.184H128.794V149.263L67.6282 131.004L62.2705 276.184Z" fill="#0A2647"/>
<path d="M94.7798 37.3549C103.963 37.3549 111.407 29.9293 111.407 20.7695C111.407 11.6097 103.963 4.1842 94.7798 4.1842C85.5971 4.1842 78.1527 11.6097 78.1527 20.7695C78.1527 29.9293 85.5971 37.3549 94.7798 37.3549Z" fill="#FFB7B7"/>
<path d="M68.9673 133.676C86.8083 147.594 106.501 154.608 128.794 151.935C119.379 118.961 116.586 86.2363 125.669 53.96L106.917 45.4982L85.8389 44.1624L70.5194 48.6568C68.3644 49.2896 66.4774 50.6121 65.1497 52.4195C63.822 54.2269 63.1266 56.4195 63.1708 58.6604C63.7121 86.1861 61.8773 111.947 68.9673 133.676Z" fill="#E6E6E6"/>
<path d="M78.8661 12.4299C80.4658 9.41942 82.4982 3.41962 85.727 2.30689C87.5203 1.7139 89.3732 1.32011 91.2529 1.13275L96.7405 3.23815L93.7535 0.921036C94.335 0.886453 94.9165 0.858224 95.4972 0.836284L99.2003 2.25678L97.3059 0.78712C100.758 0.751802 104.321 1.1098 106.996 3.20597C109.276 4.9929 111.535 11.7622 111.901 14.6316C112.291 17.3765 112.155 20.1706 111.497 22.8645L110.56 23.7539C110.232 23.0037 109.985 22.2207 109.824 21.4181C109.488 19.9186 108.843 18.5053 107.928 17.2685C107.015 16.0316 105.852 14.9982 104.516 14.2343L104.464 14.2055C102.892 13.3226 100.984 13.3633 99.1796 13.4281L90.6145 13.7355C88.5533 13.8095 86.3346 13.9395 84.7276 15.229C83.643 16.0998 82.9926 17.3852 82.3743 18.6299C81.5758 20.2371 80.0156 26.2992 80.0156 26.2992C80.0156 26.2992 79.1334 25.1549 78.71 26.0066C78.0321 23.7845 77.6195 21.4901 77.4815 19.1713C77.3468 16.8422 77.8238 14.5183 78.8661 12.4299Z" fill="#0A2647"/>
<path d="M79.4248 144.549C79.4215 143.717 79.2346 142.897 78.8789 142.146C78.5225 141.395 78.006 140.73 77.3643 140.199C76.7232 139.669 75.9729 139.285 75.167 139.075C74.3612 138.865 73.5185 138.833 72.6985 138.983L62.7207 121.403L58.6029 129.821L68.1393 146.012C68.483 147.368 69.3136 148.552 70.4732 149.339C71.6334 150.125 73.0428 150.46 74.4335 150.28C75.8249 150.1 77.101 149.417 78.0214 148.36C78.9412 147.304 79.4409 145.948 79.4248 144.549Z" fill="#FFB7B7"/>
<path d="M124.042 164.092C123.648 163.36 123.421 162.55 123.374 161.72C123.328 160.89 123.465 160.061 123.775 159.289C124.085 158.518 124.561 157.823 125.169 157.255C125.777 156.687 126.503 156.259 127.295 156.001L127.664 135.802L136.343 141.741L134.662 160.011C135.009 161.367 134.845 162.803 134.201 164.046C133.557 165.289 132.479 166.253 131.17 166.756C129.86 167.26 128.412 167.266 127.098 166.775C125.785 166.284 124.697 165.329 124.042 164.092Z" fill="#FFB7B7"/>
<path d="M63.6096 142.137L70.7532 135.457L67.0869 99.3844L71.3286 48.3926C62.1151 51.2809 52.2223 59.0403 50.5925 68.5355L44.7638 102.502L63.6096 142.137Z" fill="#E6E6E6"/>
<path opacity="0.2" d="M67.7575 80.012L61.953 103.17L70.7532 136.031L65.078 104.951L67.7575 80.012Z" fill="black"/>
<path d="M125.222 154.606L136.83 155.942L134.113 69.9616C133.991 66.1194 132.763 62.3942 130.575 59.2296C128.387 56.0656 125.332 53.5967 121.775 52.1184L117.632 50.3966L118.748 90.6999L125.222 154.606Z" fill="#E6E6E6"/>
<path opacity="0.2" d="M120.876 92.0183L125.357 141.64L117.77 92.3641L120.876 92.0183Z" fill="black"/>
<path d="M381.84 153.081H194.068C190.858 153.077 187.779 151.812 185.509 149.562C183.239 147.312 181.962 144.262 181.958 141.081V12.7839C181.962 9.60267 183.239 6.55274 185.509 4.30325C187.779 2.05377 190.858 0.788435 194.068 0.784851H381.84C385.051 0.788435 388.129 2.05377 390.399 4.30325C392.669 6.55274 393.946 9.60267 393.95 12.7839V141.081C393.946 144.262 392.669 147.312 390.399 149.562C388.129 151.812 385.051 153.077 381.84 153.081ZM194.068 1.84392C191.141 1.84721 188.334 3.00086 186.265 5.0518C184.195 7.10274 183.03 9.88348 183.027 12.7839V141.081C183.03 143.982 184.195 146.762 186.265 148.814C188.334 150.865 191.141 152.019 194.068 152.022H381.84C384.768 152.019 387.574 150.865 389.644 148.814C391.713 146.762 392.878 143.982 392.881 141.081V12.7839C392.878 9.88348 391.713 7.10274 389.644 5.0518C387.574 3.00086 384.768 1.84721 381.84 1.84392H194.068Z" fill="#0A2647"/>
<path d="M166 163.852V35.5546C166.003 32.5137 167.224 29.5983 169.394 27.4481C171.564 25.2979 174.506 24.0883 177.575 24.085H365.348C368.416 24.0883 371.359 25.2979 373.529 27.4481C375.699 29.5983 376.92 32.5137 376.923 35.5546V163.852C376.92 166.893 375.699 169.808 373.529 171.959C371.359 174.109 368.416 175.319 365.348 175.322H177.575C174.506 175.319 171.564 174.109 169.394 171.959C167.224 169.808 166.003 166.893 166 163.852Z" fill="#E4E4E4"/>
<path d="M169.57 164.077V35.328C169.572 34.3906 169.948 33.4919 170.617 32.8291C171.285 32.1663 172.192 31.7934 173.138 31.7923H362.154C363.1 31.7934 364.007 32.1663 364.676 32.8291C365.345 33.4919 365.721 34.3906 365.723 35.328V164.077C365.721 165.015 365.345 165.914 364.676 166.576C364.007 167.239 363.1 167.612 362.154 167.613H173.138C172.193 167.612 171.285 167.239 170.617 166.576C169.948 165.914 169.572 165.015 169.57 164.077Z" fill="#F4F4F4"/>
<path d="M267.647 137.544C260.093 137.544 252.71 135.325 246.429 131.166C240.15 127.009 235.255 121.099 232.364 114.184C229.474 107.27 228.717 99.6612 230.191 92.3204C231.664 84.9804 235.302 78.2377 240.643 72.9452C245.983 67.6534 252.788 64.0493 260.196 62.5892C267.604 61.1291 275.282 61.8784 282.261 64.7426C289.239 67.6066 295.203 72.457 299.399 78.6797C303.596 84.9024 305.836 92.219 305.836 99.7028C305.824 109.736 301.797 119.354 294.638 126.448C287.478 133.542 277.771 137.533 267.647 137.544Z" fill="#0A2647"/>
<path d="M282.715 95.9704H271.413V84.7718C271.412 83.7831 271.014 82.8354 270.308 82.1366C269.601 81.4378 268.645 81.0452 267.647 81.0452C266.649 81.0452 265.691 81.4378 264.985 82.1366C264.279 82.8354 263.881 83.7831 263.879 84.7718V95.9704H252.578C251.58 95.9717 250.623 96.3656 249.918 97.0657C249.213 97.7658 248.817 98.7142 248.817 99.7028C248.817 100.692 249.213 101.641 249.918 102.34C250.623 103.04 251.58 103.434 252.578 103.436H263.879V114.634C263.881 115.623 264.279 116.571 264.985 117.27C265.691 117.968 266.649 118.36 267.647 118.36C268.645 118.36 269.601 117.968 270.308 117.27C271.014 116.571 271.412 115.623 271.413 114.634V103.436H282.715C283.21 103.437 283.7 103.342 284.158 103.154C284.616 102.968 285.032 102.694 285.382 102.347C285.733 102.001 286.011 101.59 286.201 101.137C286.392 100.684 286.49 100.199 286.491 99.708C286.492 99.2179 286.395 98.7317 286.206 98.2786C286.017 97.8249 285.74 97.4128 285.39 97.0657C285.04 96.7186 284.625 96.4436 284.167 96.2551C283.711 96.0673 283.221 95.9704 282.725 95.9704H282.715Z" fill="#F4F4F4"/>
<path d="M178.975 203.063C179.565 203.173 180.05 203.468 180.43 203.948C180.81 204.428 181 204.978 181 205.598C181 206.158 180.86 206.653 180.58 207.083C180.31 207.503 179.915 207.833 179.395 208.073C178.875 208.313 178.26 208.433 177.55 208.433H173.035V197.963H177.355C178.065 197.963 178.675 198.078 179.185 198.308C179.705 198.538 180.095 198.858 180.355 199.268C180.625 199.678 180.76 200.143 180.76 200.663C180.76 201.273 180.595 201.783 180.265 202.193C179.945 202.603 179.515 202.893 178.975 203.063ZM175.135 202.283H177.055C177.555 202.283 177.94 202.173 178.21 201.953C178.48 201.723 178.615 201.398 178.615 200.978C178.615 200.558 178.48 200.233 178.21 200.003C177.94 199.773 177.555 199.658 177.055 199.658H175.135V202.283ZM177.25 206.723C177.76 206.723 178.155 206.603 178.435 206.363C178.725 206.123 178.87 205.783 178.87 205.343C178.87 204.893 178.72 204.543 178.42 204.293C178.12 204.033 177.715 203.903 177.205 203.903H175.135V206.723H177.25ZM190.519 200.123V208.433H188.404V207.383C188.134 207.743 187.779 208.028 187.339 208.238C186.909 208.438 186.439 208.538 185.929 208.538C185.279 208.538 184.704 208.403 184.204 208.133C183.704 207.853 183.309 207.448 183.019 206.918C182.739 206.378 182.599 205.738 182.599 204.998V200.123H184.699V204.698C184.699 205.358 184.864 205.868 185.194 206.228C185.524 206.578 185.974 206.753 186.544 206.753C187.124 206.753 187.579 206.578 187.909 206.228C188.239 205.868 188.404 205.358 188.404 204.698V200.123H190.519ZM192.051 204.248C192.051 203.408 192.216 202.663 192.546 202.013C192.886 201.363 193.341 200.863 193.911 200.513C194.491 200.163 195.136 199.988 195.846 199.988C196.466 199.988 197.006 200.113 197.466 200.363C197.936 200.613 198.311 200.928 198.591 201.308V200.123H200.706V208.433H198.591V207.218C198.321 207.608 197.946 207.933 197.466 208.193C196.996 208.443 196.451 208.568 195.831 208.568C195.131 208.568 194.491 208.388 193.911 208.028C193.341 207.668 192.886 207.163 192.546 206.513C192.216 205.853 192.051 205.098 192.051 204.248ZM198.591 204.278C198.591 203.768 198.491 203.333 198.291 202.973C198.091 202.603 197.821 202.323 197.481 202.133C197.141 201.933 196.776 201.833 196.386 201.833C195.996 201.833 195.636 201.928 195.306 202.118C194.976 202.308 194.706 202.588 194.496 202.958C194.296 203.318 194.196 203.748 194.196 204.248C194.196 204.748 194.296 205.188 194.496 205.568C194.706 205.938 194.976 206.223 195.306 206.423C195.646 206.623 196.006 206.723 196.386 206.723C196.776 206.723 197.141 206.628 197.481 206.438C197.821 206.238 198.091 205.958 198.291 205.598C198.491 205.228 198.591 204.788 198.591 204.278ZM205.202 201.848V205.868C205.202 206.148 205.267 206.353 205.397 206.483C205.537 206.603 205.767 206.663 206.087 206.663H207.062V208.433H205.742C203.972 208.433 203.087 207.573 203.087 205.853V201.848H202.097V200.123H203.087V198.068H205.202V200.123H207.062V201.848H205.202ZM211.606 204.248C211.606 203.408 211.771 202.663 212.101 202.013C212.441 201.363 212.896 200.863 213.466 200.513C214.046 200.163 214.691 199.988 215.401 199.988C216.021 199.988 216.561 200.113 217.021 200.363C217.491 200.613 217.866 200.928 218.146 201.308V200.123H220.261V208.433H218.146V207.218C217.876 207.608 217.501 207.933 217.021 208.193C216.551 208.443 216.006 208.568 215.386 208.568C214.686 208.568 214.046 208.388 213.466 208.028C212.896 207.668 212.441 207.163 212.101 206.513C211.771 205.853 211.606 205.098 211.606 204.248ZM218.146 204.278C218.146 203.768 218.046 203.333 217.846 202.973C217.646 202.603 217.376 202.323 217.036 202.133C216.696 201.933 216.331 201.833 215.941 201.833C215.551 201.833 215.191 201.928 214.861 202.118C214.531 202.308 214.261 202.588 214.051 202.958C213.851 203.318 213.751 203.748 213.751 204.248C213.751 204.748 213.851 205.188 214.051 205.568C214.261 205.938 214.531 206.223 214.861 206.423C215.201 206.623 215.561 206.723 215.941 206.723C216.331 206.723 216.696 206.628 217.036 206.438C217.376 206.238 217.646 205.958 217.846 205.598C218.046 205.228 218.146 204.788 218.146 204.278ZM221.772 204.278C221.772 203.418 221.947 202.668 222.297 202.028C222.647 201.378 223.132 200.878 223.752 200.528C224.372 200.168 225.082 199.988 225.882 199.988C226.912 199.988 227.762 200.248 228.432 200.768C229.112 201.278 229.567 201.998 229.797 202.928H227.532C227.412 202.568 227.207 202.288 226.917 202.088C226.637 201.878 226.287 201.773 225.867 201.773C225.267 201.773 224.792 201.993 224.442 202.433C224.092 202.863 223.917 203.478 223.917 204.278C223.917 205.068 224.092 205.683 224.442 206.123C224.792 206.553 225.267 206.768 225.867 206.768C226.717 206.768 227.272 206.388 227.532 205.628H229.797C229.567 206.528 229.112 207.243 228.432 207.773C227.752 208.303 226.902 208.568 225.882 208.568C225.082 208.568 224.372 208.393 223.752 208.043C223.132 207.683 222.647 207.183 222.297 206.543C221.947 205.893 221.772 205.138 221.772 204.278ZM233.781 201.848V205.868C233.781 206.148 233.846 206.353 233.976 206.483C234.116 206.603 234.346 206.663 234.666 206.663H235.641V208.433H234.321C232.551 208.433 231.666 207.573 231.666 205.853V201.848H230.676V200.123H231.666V198.068H233.781V200.123H235.641V201.848H233.781ZM238.216 199.133C237.846 199.133 237.536 199.018 237.286 198.788C237.046 198.548 236.926 198.253 236.926 197.903C236.926 197.553 237.046 197.263 237.286 197.033C237.536 196.793 237.846 196.673 238.216 196.673C238.586 196.673 238.891 196.793 239.131 197.033C239.381 197.263 239.506 197.553 239.506 197.903C239.506 198.253 239.381 198.548 239.131 198.788C238.891 199.018 238.586 199.133 238.216 199.133ZM239.251 200.123V208.433H237.151V200.123H239.251ZM244.791 206.498L246.891 200.123H249.126L246.051 208.433H243.501L240.441 200.123H242.691L244.791 206.498ZM251.371 199.133C251.001 199.133 250.691 199.018 250.441 198.788C250.201 198.548 250.081 198.253 250.081 197.903C250.081 197.553 250.201 197.263 250.441 197.033C250.691 196.793 251.001 196.673 251.371 196.673C251.741 196.673 252.046 196.793 252.286 197.033C252.536 197.263 252.661 197.553 252.661 197.903C252.661 198.253 252.536 198.548 252.286 198.788C252.046 199.018 251.741 199.133 251.371 199.133ZM252.406 200.123V208.433H250.306V200.123H252.406ZM256.925 201.848V205.868C256.925 206.148 256.99 206.353 257.12 206.483C257.26 206.603 257.49 206.663 257.81 206.663H258.785V208.433H257.465C255.695 208.433 254.81 207.573 254.81 205.853V201.848H253.82V200.123H254.81V198.068H256.925V200.123H258.785V201.848H256.925ZM268.246 200.123L263.101 212.363H260.866L262.666 208.223L259.336 200.123H261.691L263.836 205.928L266.011 200.123H268.246ZM275.052 201.323C275.322 200.943 275.692 200.628 276.162 200.378C276.642 200.118 277.187 199.988 277.797 199.988C278.507 199.988 279.147 200.163 279.717 200.513C280.297 200.863 280.752 201.363 281.082 202.013C281.422 202.653 281.592 203.398 281.592 204.248C281.592 205.098 281.422 205.853 281.082 206.513C280.752 207.163 280.297 207.668 279.717 208.028C279.147 208.388 278.507 208.568 277.797 208.568C277.187 208.568 276.647 208.443 276.177 208.193C275.717 207.943 275.342 207.628 275.052 207.248V212.393H272.952V200.123H275.052V201.323ZM279.447 204.248C279.447 203.748 279.342 203.318 279.132 202.958C278.932 202.588 278.662 202.308 278.322 202.118C277.992 201.928 277.632 201.833 277.242 201.833C276.862 201.833 276.502 201.933 276.162 202.133C275.832 202.323 275.562 202.603 275.352 202.973C275.152 203.343 275.052 203.778 275.052 204.278C275.052 204.778 275.152 205.213 275.352 205.583C275.562 205.953 275.832 206.238 276.162 206.438C276.502 206.628 276.862 206.723 277.242 206.723C277.632 206.723 277.992 206.623 278.322 206.423C278.662 206.223 278.932 205.938 279.132 205.568C279.342 205.198 279.447 204.758 279.447 204.248ZM290.843 204.098C290.843 204.398 290.823 204.668 290.783 204.908H284.708C284.758 205.508 284.968 205.978 285.338 206.318C285.708 206.658 286.163 206.828 286.703 206.828C287.483 206.828 288.038 206.493 288.368 205.823H290.633C290.393 206.623 289.933 207.283 289.253 207.803C288.573 208.313 287.738 208.568 286.748 208.568C285.948 208.568 285.228 208.393 284.588 208.043C283.958 207.683 283.463 207.178 283.103 206.528C282.753 205.878 282.578 205.128 282.578 204.278C282.578 203.418 282.753 202.663 283.103 202.013C283.453 201.363 283.943 200.863 284.573 200.513C285.203 200.163 285.928 199.988 286.748 199.988C287.538 199.988 288.243 200.158 288.863 200.498C289.493 200.838 289.978 201.323 290.318 201.953C290.668 202.573 290.843 203.288 290.843 204.098ZM288.668 203.498C288.658 202.958 288.463 202.528 288.083 202.208C287.703 201.878 287.238 201.713 286.688 201.713C286.168 201.713 285.728 201.873 285.368 202.193C285.018 202.503 284.803 202.938 284.723 203.498H288.668ZM294.476 201.413C294.746 200.973 295.096 200.628 295.526 200.378C295.966 200.128 296.466 200.003 297.026 200.003V202.208H296.471C295.811 202.208 295.311 202.363 294.971 202.673C294.641 202.983 294.476 203.523 294.476 204.293V208.433H292.376V200.123H294.476V201.413ZM300.885 201.848V205.868C300.885 206.148 300.95 206.353 301.08 206.483C301.22 206.603 301.45 206.663 301.77 206.663H302.745V208.433H301.425C299.655 208.433 298.77 207.573 298.77 205.853V201.848H297.78V200.123H298.77V198.068H300.885V200.123H302.745V201.848H300.885ZM303.716 204.248C303.716 203.408 303.881 202.663 304.211 202.013C304.551 201.363 305.006 200.863 305.576 200.513C306.156 200.163 306.801 199.988 307.511 199.988C308.131 199.988 308.671 200.113 309.131 200.363C309.601 200.613 309.976 200.928 310.256 201.308V200.123H312.371V208.433H310.256V207.218C309.986 207.608 309.611 207.933 309.131 208.193C308.661 208.443 308.116 208.568 307.496 208.568C306.796 208.568 306.156 208.388 305.576 208.028C305.006 207.668 304.551 207.163 304.211 206.513C303.881 205.853 303.716 205.098 303.716 204.248ZM310.256 204.278C310.256 203.768 310.156 203.333 309.956 202.973C309.756 202.603 309.486 202.323 309.146 202.133C308.806 201.933 308.441 201.833 308.051 201.833C307.661 201.833 307.301 201.928 306.971 202.118C306.641 202.308 306.371 202.588 306.161 202.958C305.961 203.318 305.861 203.748 305.861 204.248C305.861 204.748 305.961 205.188 306.161 205.568C306.371 205.938 306.641 206.223 306.971 206.423C307.311 206.623 307.671 206.723 308.051 206.723C308.441 206.723 308.806 206.628 309.146 206.438C309.486 206.238 309.756 205.958 309.956 205.598C310.156 205.228 310.256 204.788 310.256 204.278ZM324.742 200.003C325.762 200.003 326.582 200.318 327.202 200.948C327.832 201.568 328.147 202.438 328.147 203.558V208.433H326.047V203.843C326.047 203.193 325.882 202.698 325.552 202.358C325.222 202.008 324.772 201.833 324.202 201.833C323.632 201.833 323.177 202.008 322.837 202.358C322.507 202.698 322.342 203.193 322.342 203.843V208.433H320.242V203.843C320.242 203.193 320.077 202.698 319.747 202.358C319.417 202.008 318.967 201.833 318.397 201.833C317.817 201.833 317.357 202.008 317.017 202.358C316.687 202.698 316.522 203.193 316.522 203.843V208.433H314.422V200.123H316.522V201.128C316.792 200.778 317.137 200.503 317.557 200.303C317.987 200.103 318.457 200.003 318.967 200.003C319.617 200.003 320.197 200.143 320.707 200.423C321.217 200.693 321.612 201.083 321.892 201.593C322.162 201.113 322.552 200.728 323.062 200.438C323.582 200.148 324.142 200.003 324.742 200.003ZM329.599 204.248C329.599 203.408 329.764 202.663 330.094 202.013C330.434 201.363 330.889 200.863 331.459 200.513C332.039 200.163 332.684 199.988 333.394 199.988C334.014 199.988 334.554 200.113 335.014 200.363C335.484 200.613 335.859 200.928 336.139 201.308V200.123H338.254V208.433H336.139V207.218C335.869 207.608 335.494 207.933 335.014 208.193C334.544 208.443 333.999 208.568 333.379 208.568C332.679 208.568 332.039 208.388 331.459 208.028C330.889 207.668 330.434 207.163 330.094 206.513C329.764 205.853 329.599 205.098 329.599 204.248ZM336.139 204.278C336.139 203.768 336.039 203.333 335.839 202.973C335.639 202.603 335.369 202.323 335.029 202.133C334.689 201.933 334.324 201.833 333.934 201.833C333.544 201.833 333.184 201.928 332.854 202.118C332.524 202.308 332.254 202.588 332.044 202.958C331.844 203.318 331.744 203.748 331.744 204.248C331.744 204.748 331.844 205.188 332.044 205.568C332.254 205.938 332.524 206.223 332.854 206.423C333.194 206.623 333.554 206.723 333.934 206.723C334.324 206.723 334.689 206.628 335.029 206.438C335.369 206.238 335.639 205.958 335.839 205.598C336.039 205.228 336.139 204.788 336.139 204.278ZM350.626 200.003C351.646 200.003 352.466 200.318 353.086 200.948C353.716 201.568 354.031 202.438 354.031 203.558V208.433H351.931V203.843C351.931 203.193 351.766 202.698 351.436 202.358C351.106 202.008 350.656 201.833 350.086 201.833C349.516 201.833 349.061 202.008 348.721 202.358C348.391 202.698 348.226 203.193 348.226 203.843V208.433H346.126V203.843C346.126 203.193 345.961 202.698 345.631 202.358C345.301 202.008 344.851 201.833 344.281 201.833C343.701 201.833 343.241 202.008 342.901 202.358C342.571 202.698 342.406 203.193 342.406 203.843V208.433H340.306V200.123H342.406V201.128C342.676 200.778 343.021 200.503 343.441 200.303C343.871 200.103 344.341 200.003 344.851 200.003C345.501 200.003 346.081 200.143 346.591 200.423C347.101 200.693 347.496 201.083 347.776 201.593C348.046 201.113 348.436 200.728 348.946 200.438C349.466 200.148 350.026 200.003 350.626 200.003ZM363.868 200.123V208.433H361.753V207.383C361.483 207.743 361.128 208.028 360.688 208.238C360.258 208.438 359.788 208.538 359.278 208.538C358.628 208.538 358.053 208.403 357.553 208.133C357.053 207.853 356.658 207.448 356.368 206.918C356.088 206.378 355.948 205.738 355.948 204.998V200.123H358.048V204.698C358.048 205.358 358.213 205.868 358.543 206.228C358.873 206.578 359.323 206.753 359.893 206.753C360.473 206.753 360.928 206.578 361.258 206.228C361.588 205.868 361.753 205.358 361.753 204.698V200.123H363.868Z" fill="#0A2647"/>
</svg>
