<svg width="400" height="290" viewBox="0 0 400 290" fill="none" xmlns="http://www.w3.org/2000/svg">
<path d="M394.891 288.66H0V290H394.891V288.66Z" fill="#0A2647"/>
<path d="M329.974 268.221C331.791 268.807 333.74 268.954 335.636 268.647C337.531 268.341 339.31 267.591 340.799 266.47C344.59 263.549 345.777 258.735 346.745 254.28L349.605 241.097L343.617 244.882C339.31 247.606 334.906 250.415 331.924 254.359C328.942 258.303 327.64 263.687 330.037 267.955" fill="#0A2647"/>
<path d="M330.899 285.098C330.144 280.056 329.37 274.95 329.899 269.852C330.369 265.326 331.873 260.906 334.935 257.281C336.56 255.36 338.538 253.715 340.779 252.418C341.364 252.079 341.901 252.93 341.319 253.267C337.442 255.517 334.442 258.84 332.754 262.756C330.889 267.111 330.59 271.858 330.911 276.485C331.107 279.282 331.518 282.061 331.932 284.837C331.965 284.963 331.945 285.095 331.875 285.207C331.806 285.319 331.693 285.403 331.558 285.441C331.422 285.476 331.276 285.459 331.152 285.394C331.028 285.33 330.938 285.224 330.9 285.098H330.899Z" fill="#144272"/>
<path d="M326.626 277.567C325.701 278.569 324.511 279.337 323.169 279.795C321.827 280.253 320.38 280.386 318.965 280.181C315.336 279.616 312.602 276.939 310.156 274.414L302.92 266.945L308.313 267.305C312.191 267.565 316.168 267.847 319.696 269.347C323.225 270.848 326.266 273.852 326.477 277.417" fill="#0A2647"/>
<path d="M332.835 287.981C331.563 285.171 330.282 282.322 328.331 279.84C326.657 277.592 324.32 275.827 321.594 274.754C320.123 274.214 318.562 273.915 316.979 273.869C316.566 273.856 316.569 274.444 316.979 274.456C319.72 274.54 322.361 275.422 324.522 276.973C326.918 278.701 328.636 281.067 329.994 283.542C330.815 285.039 331.518 286.586 332.218 288.133C332.242 288.207 332.296 288.269 332.369 288.308C332.441 288.346 332.526 288.358 332.608 288.341C332.69 288.321 332.76 288.271 332.802 288.204C332.845 288.137 332.857 288.057 332.835 287.981Z" fill="#144272"/>
<path d="M336.325 277.009C337.104 278.095 338.174 278.98 339.434 279.577C340.693 280.173 342.098 280.462 343.514 280.414C347.153 280.256 350.188 277.924 352.919 275.709L360.997 269.16L355.651 268.925C351.806 268.756 347.862 268.598 344.199 269.687C340.537 270.776 337.16 273.396 336.49 276.876" fill="#0A2647"/>
<path d="M328.768 287.997C332.396 282.102 336.607 275.549 344.127 273.455C346.218 272.875 348.411 272.667 350.588 272.842C351.273 272.897 351.102 273.867 350.417 273.813C346.77 273.535 343.129 274.42 340.108 276.318C337.201 278.134 334.938 280.66 333.022 283.339C331.85 284.98 330.798 286.69 329.746 288.398C329.41 288.944 328.428 288.549 328.768 287.997Z" fill="#144272"/>
<path d="M385.432 278.808C384.031 279.261 382.526 279.374 381.063 279.137C379.6 278.901 378.228 278.322 377.079 277.458C374.153 275.203 373.236 271.488 372.491 268.049L370.283 257.875L374.905 260.798C378.228 262.899 381.627 265.067 383.928 268.111C386.229 271.155 387.234 275.31 385.385 278.603" fill="#0A2647"/>
<path d="M384.156 288.465C384.562 285.746 384.98 282.992 384.695 280.244C384.509 277.794 383.568 275.442 381.98 273.465C381.103 272.429 380.037 271.542 378.828 270.843C378.513 270.661 378.223 271.119 378.536 271.301C380.626 272.514 382.244 274.306 383.154 276.418C384.16 278.766 384.321 281.325 384.148 283.82C384.043 285.329 383.821 286.827 383.597 288.324C383.58 288.391 383.591 288.463 383.628 288.523C383.666 288.584 383.726 288.629 383.799 288.649C383.873 288.667 383.951 288.658 384.018 288.623C384.084 288.589 384.133 288.532 384.154 288.464L384.156 288.465Z" fill="#144272"/>
<path d="M159.632 95.0627C159.019 94.1755 158.214 93.42 157.268 92.8453C156.321 92.2705 155.256 91.8898 154.142 91.7266C153.028 91.5641 151.889 91.6241 150.802 91.9023C149.713 92.1797 148.7 92.6703 147.829 93.3401C147.554 93.5533 147.295 93.784 147.055 94.0314L115.589 89.7432L113.838 67.5931C113.704 65.8938 112.854 64.3136 111.476 63.2008C110.097 62.0879 108.303 61.5331 106.488 61.6589C104.673 61.7847 102.986 62.5802 101.796 63.8705C100.608 65.1608 100.016 66.8401 100.15 68.5394C100.153 68.5786 100.156 68.6185 100.16 68.6577L103.227 99.7383L103.242 99.8074C103.641 101.003 104.442 102.045 105.524 102.78C106.605 103.516 107.912 103.905 109.249 103.89L146.26 103.292C146.403 103.498 146.558 103.696 146.723 103.886C147.44 104.701 148.331 105.367 149.341 105.837C150.351 106.308 151.455 106.574 152.582 106.616C153.709 106.66 154.833 106.48 155.881 106.088C156.927 105.696 157.874 105.101 158.659 104.343C158.819 104.191 158.969 104.032 159.112 103.87C160.179 102.64 160.804 101.126 160.897 99.545C160.99 97.9632 160.547 96.3946 159.632 95.0627Z" fill="#FFB7B7"/>
<path d="M96.5032 280.718L105.108 280.717L109.202 248.231L96.5023 248.232L96.5032 280.718Z" fill="#FFB7B7"/>
<path d="M93.7818 288.215L122.809 288.214V287.874C122.809 285.092 121.618 282.425 119.5 280.458C117.381 278.492 114.507 277.386 111.511 277.386L93.7809 277.387L93.7818 288.215Z" fill="#2F2E41"/>
<path d="M33.0028 273.081L41.7769 275.72L57.4954 247.128L44.545 243.233L33.0028 273.081Z" fill="#FFB7B7"/>
<path d="M28.4672 279.802L55.8672 288.215L55.9851 287.903C56.9494 285.357 56.7516 282.57 55.4336 280.155C54.1155 277.741 51.7869 275.896 48.9583 275.028L48.9576 275.027L32.2227 269.889L28.4672 279.802Z" fill="#2F2E41"/>
<path d="M86.4212 1.88047C86.4212 1.88047 95.2867 -0.85024 100.986 10.0726C106.686 20.9955 115.552 33.0106 115.552 33.0106L110.486 34.1027C110.486 34.1027 109.219 26.4569 106.053 25.3646L107.319 35.1947C107.319 35.1947 69.3227 46.6642 52.2241 34.1027L52.8573 30.2801C52.8573 30.2801 50.3236 30.8257 50.3236 34.1027L48.4241 32.4642C48.4241 32.4642 50.3236 29.1872 56.0232 24.8185C59.7642 21.9507 61.0496 16.495 61.4914 13.0839C61.8424 10.1961 63.1696 7.48733 65.2823 5.35088C69.0705 1.56526 75.972 -2.45833 86.4212 1.88047Z" fill="#0A2647"/>
<path d="M82.8952 39.9835C73.8774 39.9835 66.5668 33.2705 66.5668 24.9897C66.5668 16.7088 73.8774 9.99585 82.8952 9.99585C91.9131 9.99585 99.2237 16.7088 99.2237 24.9897C99.2237 33.2705 91.9131 39.9835 82.8952 39.9835Z" fill="#FFB7B7"/>
<path d="M104.566 52.5592L107.589 51.6454C107.589 51.6454 113.637 53.9294 113.637 58.0403C113.637 62.1519 114.645 78.5968 114.645 78.5968L101.038 79.9671L104.566 52.5592Z" fill="#CBCBCB"/>
<path d="M51.8295 141.703C53.0424 140.437 53.7263 138.809 53.7581 137.113C53.7907 135.418 53.1675 133.768 52.0037 132.464L60.2096 68.4619C60.2895 66.9525 59.7234 65.4757 58.6357 64.3544C57.5481 63.2332 56.0268 62.5593 54.4067 62.4819C52.7865 62.4044 51.1991 62.9284 49.993 63.9396C48.7872 64.95 48.0612 66.3661 47.9746 67.8747C47.9734 67.8955 47.9724 67.9163 47.9715 67.9371L40.6307 132.007C40.3645 132.256 40.1192 132.523 39.897 132.807C39.3082 133.565 38.8855 134.424 38.6531 135.334C38.4207 136.245 38.3831 137.19 38.5425 138.113C38.7019 139.037 39.0552 139.923 39.582 140.72C40.109 141.517 40.7992 142.209 41.6135 142.757C41.6978 142.814 41.7835 142.87 41.8703 142.923C42.813 143.504 43.882 143.883 45.0008 144.034C46.1196 144.185 47.2604 144.103 48.3412 143.794C49.6908 143.414 50.8988 142.689 51.8295 141.703Z" fill="#FFB7B7"/>
<path d="M59.3097 78.3012L45.7027 76.9309C45.7027 76.9309 46.7106 60.486 46.7106 56.3744C46.7106 52.2636 52.7584 49.9795 52.7584 49.9795L55.7819 50.8933L59.3097 78.3012Z" fill="#CBCBCB"/>
<path d="M103.085 100.8C103.085 100.8 114.555 119.981 114.555 143.245C114.555 166.509 115.552 273.248 115.552 273.248C115.552 273.248 100.593 279.633 91.6164 271.879L83.6382 153.737L52.2223 269.598C52.2223 269.598 37.2626 272.336 30.2814 267.774L43.7452 187.036C43.7452 187.036 49.2304 111.315 64.1901 105.841C79.1497 100.367 103.085 100.8 103.085 100.8Z" fill="#0A2647"/>
<path d="M100.446 24.9898C94.6318 21.227 89.9265 16.8931 86.8141 11.7377C86.8141 11.7377 76.1462 22.3394 69.6266 22.8694C63.107 23.3995 69.0333 10.1474 69.0333 10.1474L80.8869 7.49695L92.148 8.55709L101.038 13.858L100.446 24.9898Z" fill="#0A2647"/>
<path d="M66.8462 47.5055C66.8462 47.5055 66.3809 47.2756 94.1982 48.2102L105.84 51.169L107.388 51.5621C107.388 51.5621 105.923 78.6077 102.015 83.5657C98.107 88.5245 99.084 91.2284 100.061 91.6798C101.038 92.1305 103.48 91.2284 102.015 93.4824C100.55 95.7365 98.5959 94.3837 100.55 95.7365C102.503 97.0884 103.48 102.046 103.48 102.046L60.4963 107.456C60.4963 107.456 59.0304 89.8764 55.1233 80.8618C51.2154 71.8463 50.2384 68.2403 50.2384 68.2403L53.1694 50.2102L66.8462 47.5055Z" fill="#CBCBCB"/>
<path d="M153.694 29.4803H368.322C368.883 29.4803 369.384 29.5143 369.735 29.5665C369.852 29.5839 369.946 29.6022 370.016 29.6198V71.8821C369.946 71.8996 369.852 71.918 369.735 71.9353C369.384 71.9876 368.883 72.0215 368.322 72.0215H153.694C153.133 72.0215 152.632 71.9876 152.28 71.9353C152.164 71.918 152.07 71.8996 152 71.8821V29.6198C152.07 29.6022 152.164 29.5839 152.28 29.5665C152.632 29.5143 153.133 29.4803 153.694 29.4803Z" fill="white" stroke="#CACACA"/>
<path d="M345.194 54.5049H192.111C191.075 54.5049 190.083 54.1106 189.35 53.4087C188.617 52.7067 188.206 51.7547 188.206 50.7621C188.206 49.7695 188.617 48.8174 189.35 48.1155C190.083 47.4137 191.075 47.0193 192.111 47.0193H345.194C346.229 47.0193 347.223 47.4137 347.956 48.1155C348.688 48.8174 349.1 49.7695 349.1 50.7621C349.1 51.7547 348.688 52.7067 347.956 53.4087C347.223 54.1106 346.229 54.5049 345.194 54.5049Z" fill="#E6E6E6"/>
<path d="M174.191 54.4827C176.341 54.4827 178.084 52.8119 178.084 50.751C178.084 48.69 176.341 47.0193 174.191 47.0193C172.041 47.0193 170.298 48.69 170.298 50.751C170.298 52.8119 172.041 54.4827 174.191 54.4827Z" fill="#E5E5E5"/>
<path d="M153.694 78.7385H368.321C368.883 78.7385 369.384 78.7721 369.735 78.8244C369.852 78.8423 369.946 78.8602 370.016 78.8781V121.14C369.946 121.158 369.852 121.176 369.735 121.194C369.384 121.246 368.883 121.28 368.321 121.28H153.694C153.133 121.28 152.632 121.246 152.28 121.194C152.163 121.176 152.07 121.158 152 121.14V78.8781C152.07 78.8602 152.163 78.8423 152.28 78.8244C152.632 78.7721 153.133 78.7385 153.694 78.7385Z" fill="white" stroke="#CACACA"/>
<path d="M345.194 103.763H192.111C191.075 103.763 190.083 103.368 189.35 102.667C188.617 101.965 188.206 101.013 188.206 100.02C188.206 99.0277 188.617 98.0754 189.35 97.3738C190.083 96.6715 191.075 96.2775 192.111 96.2775H345.194C346.229 96.2775 347.223 96.6715 347.956 97.3738C348.688 98.0754 349.099 99.0277 349.099 100.02C349.099 101.013 348.688 101.965 347.956 102.667C347.223 103.368 346.229 103.763 345.194 103.763Z" fill="#E6E6E6"/>
<path d="M174.191 103.741C176.341 103.741 178.084 102.07 178.084 100.009C178.084 97.9482 176.341 96.2775 174.191 96.2775C172.041 96.2775 170.298 97.9482 170.298 100.009C170.298 102.07 172.041 103.741 174.191 103.741Z" fill="#E5E5E5"/>
<path d="M153.694 131.728H368.321C368.883 131.728 369.384 131.762 369.735 131.814C369.852 131.832 369.946 131.85 370.016 131.868V174.13C369.946 174.148 369.852 174.166 369.735 174.184C369.384 174.236 368.883 174.269 368.321 174.269H153.694C153.133 174.269 152.632 174.236 152.28 174.184C152.163 174.166 152.07 174.148 152 174.13V131.868C152.07 131.85 152.163 131.832 152.28 131.814C152.632 131.762 153.133 131.728 153.694 131.728Z" fill="white" stroke="#CACACA"/>
<path d="M345.194 156.753H192.111C191.075 156.753 190.083 156.358 189.35 155.657C188.617 154.955 188.206 154.003 188.206 153.01C188.206 152.018 188.617 151.065 189.35 150.364C190.083 149.661 191.075 149.267 192.111 149.267H345.194C346.229 149.267 347.223 149.661 347.956 150.364C348.688 151.065 349.099 152.018 349.099 153.01C349.099 154.003 348.688 154.955 347.956 155.657C347.223 156.358 346.229 156.753 345.194 156.753Z" fill="#E6E6E6"/>
<path d="M174.191 156.731C176.341 156.731 178.084 155.06 178.084 152.999C178.084 150.938 176.341 149.267 174.191 149.267C172.041 149.267 170.298 150.938 170.298 152.999C170.298 155.06 172.041 156.731 174.191 156.731Z" fill="#E5E5E5"/>
<path d="M369.978 57.5484C386.559 57.5484 400 44.6658 400 28.7743C400 12.8827 386.559 0 369.978 0C353.396 0 339.955 12.8827 339.955 28.7743C339.955 44.6658 353.396 57.5484 369.978 57.5484Z" fill="#0A2647"/>
<path d="M357.468 26.875C356.943 26.875 356.439 27.0751 356.067 27.4311C355.695 27.7872 355.487 28.2702 355.487 28.7738C355.487 29.2774 355.695 29.7604 356.067 30.1165C356.439 30.4726 356.943 30.6727 357.468 30.6727H367.997V40.7628C367.998 41.2656 368.207 41.7474 368.578 42.1025C368.95 42.4576 369.453 42.6571 369.978 42.6571C370.502 42.6571 371.005 42.4576 371.377 42.1025C371.748 41.7474 371.957 41.2656 371.958 40.7628V30.6727H382.487C383.012 30.6727 383.516 30.4726 383.888 30.1165C384.259 29.7604 384.468 29.2774 384.468 28.7738C384.468 28.2702 384.259 27.7872 383.888 27.4311C383.516 27.0751 383.012 26.875 382.487 26.875H371.958V16.7843C371.958 16.2808 371.75 15.7979 371.378 15.4418C371.007 15.0858 370.502 14.8857 369.978 14.8857C369.452 14.8857 368.948 15.0858 368.577 15.4418C368.205 15.7979 367.997 16.2808 367.997 16.7843V26.875H357.468Z" fill="white"/>
<path d="M190.975 201.986C191.565 202.096 192.05 202.391 192.43 202.871C192.81 203.351 193 203.901 193 204.521C193 205.081 192.86 205.576 192.58 206.006C192.31 206.426 191.915 206.756 191.395 206.996C190.875 207.236 190.26 207.356 189.55 207.356H185.035V196.886H189.355C190.065 196.886 190.675 197.001 191.185 197.231C191.705 197.461 192.095 197.781 192.355 198.191C192.625 198.601 192.76 199.066 192.76 199.586C192.76 200.196 192.595 200.706 192.265 201.116C191.945 201.526 191.515 201.816 190.975 201.986ZM187.135 201.206H189.055C189.555 201.206 189.94 201.096 190.21 200.876C190.48 200.646 190.615 200.321 190.615 199.901C190.615 199.481 190.48 199.156 190.21 198.926C189.94 198.696 189.555 198.581 189.055 198.581H187.135V201.206ZM189.25 205.646C189.76 205.646 190.155 205.526 190.435 205.286C190.725 205.046 190.87 204.706 190.87 204.266C190.87 203.816 190.72 203.466 190.42 203.216C190.12 202.956 189.715 202.826 189.205 202.826H187.135V205.646H189.25ZM202.519 199.046V207.356H200.404V206.306C200.134 206.666 199.779 206.951 199.339 207.161C198.909 207.361 198.439 207.461 197.929 207.461C197.279 207.461 196.704 207.326 196.204 207.056C195.704 206.776 195.309 206.371 195.019 205.841C194.739 205.301 194.599 204.661 194.599 203.921V199.046H196.699V203.621C196.699 204.281 196.864 204.791 197.194 205.151C197.524 205.501 197.974 205.676 198.544 205.676C199.124 205.676 199.579 205.501 199.909 205.151C200.239 204.791 200.404 204.281 200.404 203.621V199.046H202.519ZM204.051 203.171C204.051 202.331 204.216 201.586 204.546 200.936C204.886 200.286 205.341 199.786 205.911 199.436C206.491 199.086 207.136 198.911 207.846 198.911C208.466 198.911 209.006 199.036 209.466 199.286C209.936 199.536 210.311 199.851 210.591 200.231V199.046H212.706V207.356H210.591V206.141C210.321 206.531 209.946 206.856 209.466 207.116C208.996 207.366 208.451 207.491 207.831 207.491C207.131 207.491 206.491 207.311 205.911 206.951C205.341 206.591 204.886 206.086 204.546 205.436C204.216 204.776 204.051 204.021 204.051 203.171ZM210.591 203.201C210.591 202.691 210.491 202.256 210.291 201.896C210.091 201.526 209.821 201.246 209.481 201.056C209.141 200.856 208.776 200.756 208.386 200.756C207.996 200.756 207.636 200.851 207.306 201.041C206.976 201.231 206.706 201.511 206.496 201.881C206.296 202.241 206.196 202.671 206.196 203.171C206.196 203.671 206.296 204.111 206.496 204.491C206.706 204.861 206.976 205.146 207.306 205.346C207.646 205.546 208.006 205.646 208.386 205.646C208.776 205.646 209.141 205.551 209.481 205.361C209.821 205.161 210.091 204.881 210.291 204.521C210.491 204.151 210.591 203.711 210.591 203.201ZM217.202 200.771V204.791C217.202 205.071 217.267 205.276 217.397 205.406C217.537 205.526 217.767 205.586 218.087 205.586H219.062V207.356H217.742C215.972 207.356 215.087 206.496 215.087 204.776V200.771H214.097V199.046H215.087V196.991H217.202V199.046H219.062V200.771H217.202ZM226.246 205.691H229.696V207.356H224.146V196.886H226.246V205.691ZM232.096 198.056C231.726 198.056 231.416 197.941 231.166 197.711C230.926 197.471 230.806 197.176 230.806 196.826C230.806 196.476 230.926 196.186 231.166 195.956C231.416 195.716 231.726 195.596 232.096 195.596C232.466 195.596 232.771 195.716 233.011 195.956C233.261 196.186 233.386 196.476 233.386 196.826C233.386 197.176 233.261 197.471 233.011 197.711C232.771 197.941 232.466 198.056 232.096 198.056ZM233.131 199.046V207.356H231.031V199.046H233.131ZM238.386 207.491C237.706 207.491 237.096 207.371 236.556 207.131C236.016 206.881 235.586 206.546 235.266 206.126C234.956 205.706 234.786 205.241 234.756 204.731H236.871C236.911 205.051 237.066 205.316 237.336 205.526C237.616 205.736 237.961 205.841 238.371 205.841C238.771 205.841 239.081 205.761 239.301 205.601C239.531 205.441 239.646 205.236 239.646 204.986C239.646 204.716 239.506 204.516 239.226 204.386C238.956 204.246 238.521 204.096 237.921 203.936C237.301 203.786 236.791 203.631 236.391 203.471C236.001 203.311 235.661 203.066 235.371 202.736C235.091 202.406 234.951 201.961 234.951 201.401C234.951 200.941 235.081 200.521 235.341 200.141C235.611 199.761 235.991 199.461 236.481 199.241C236.981 199.021 237.566 198.911 238.236 198.911C239.226 198.911 240.016 199.161 240.606 199.661C241.196 200.151 241.521 200.816 241.581 201.656H239.571C239.541 201.326 239.401 201.066 239.151 200.876C238.911 200.676 238.586 200.576 238.176 200.576C237.796 200.576 237.501 200.646 237.291 200.786C237.091 200.926 236.991 201.121 236.991 201.371C236.991 201.651 237.131 201.866 237.411 202.016C237.691 202.156 238.126 202.301 238.716 202.451C239.316 202.601 239.811 202.756 240.201 202.916C240.591 203.076 240.926 203.326 241.206 203.666C241.496 203.996 241.646 204.436 241.656 204.986C241.656 205.466 241.521 205.896 241.251 206.276C240.991 206.656 240.611 206.956 240.111 207.176C239.621 207.386 239.046 207.491 238.386 207.491ZM245.825 200.771V204.791C245.825 205.071 245.89 205.276 246.02 205.406C246.16 205.526 246.39 205.586 246.71 205.586H247.685V207.356H246.365C244.595 207.356 243.71 206.496 243.71 204.776V200.771H242.72V199.046H243.71V196.991H245.825V199.046H247.685V200.771H245.825ZM254.869 196.886V207.356H252.769V196.886H254.869ZM259.389 200.771V204.791C259.389 205.071 259.454 205.276 259.584 205.406C259.724 205.526 259.954 205.586 260.274 205.586H261.249V207.356H259.929C258.159 207.356 257.274 206.496 257.274 204.776V200.771H256.284V199.046H257.274V196.991H259.389V199.046H261.249V200.771H259.389ZM270.485 203.021C270.485 203.321 270.465 203.591 270.425 203.831H264.35C264.4 204.431 264.61 204.901 264.98 205.241C265.35 205.581 265.805 205.751 266.345 205.751C267.125 205.751 267.68 205.416 268.01 204.746H270.275C270.035 205.546 269.575 206.206 268.895 206.726C268.215 207.236 267.38 207.491 266.39 207.491C265.59 207.491 264.87 207.316 264.23 206.966C263.6 206.606 263.105 206.101 262.745 205.451C262.395 204.801 262.22 204.051 262.22 203.201C262.22 202.341 262.395 201.586 262.745 200.936C263.095 200.286 263.585 199.786 264.215 199.436C264.845 199.086 265.57 198.911 266.39 198.911C267.18 198.911 267.885 199.081 268.505 199.421C269.135 199.761 269.62 200.246 269.96 200.876C270.31 201.496 270.485 202.211 270.485 203.021ZM268.31 202.421C268.3 201.881 268.105 201.451 267.725 201.131C267.345 200.801 266.88 200.636 266.33 200.636C265.81 200.636 265.37 200.796 265.01 201.116C264.66 201.426 264.445 201.861 264.365 202.421H268.31ZM282.337 198.926C283.357 198.926 284.177 199.241 284.797 199.871C285.427 200.491 285.742 201.361 285.742 202.481V207.356H283.642V202.766C283.642 202.116 283.477 201.621 283.147 201.281C282.817 200.931 282.367 200.756 281.797 200.756C281.227 200.756 280.772 200.931 280.432 201.281C280.102 201.621 279.937 202.116 279.937 202.766V207.356H277.837V202.766C277.837 202.116 277.672 201.621 277.342 201.281C277.012 200.931 276.562 200.756 275.992 200.756C275.412 200.756 274.952 200.931 274.612 201.281C274.282 201.621 274.117 202.116 274.117 202.766V207.356H272.017V199.046H274.117V200.051C274.387 199.701 274.732 199.426 275.152 199.226C275.582 199.026 276.052 198.926 276.562 198.926C277.212 198.926 277.792 199.066 278.302 199.346C278.812 199.616 279.207 200.006 279.487 200.516C279.757 200.036 280.147 199.651 280.657 199.361C281.177 199.071 281.737 198.926 282.337 198.926ZM297.219 207.356L293.409 202.691V207.356H291.309V196.886H293.409V201.581L297.219 196.886H299.754L295.434 202.076L299.874 207.356H297.219ZM300.716 203.171C300.716 202.331 300.881 201.586 301.211 200.936C301.551 200.286 302.006 199.786 302.576 199.436C303.156 199.086 303.801 198.911 304.511 198.911C305.131 198.911 305.671 199.036 306.131 199.286C306.601 199.536 306.976 199.851 307.256 200.231V199.046H309.371V207.356H307.256V206.141C306.986 206.531 306.611 206.856 306.131 207.116C305.661 207.366 305.116 207.491 304.496 207.491C303.796 207.491 303.156 207.311 302.576 206.951C302.006 206.591 301.551 206.086 301.211 205.436C300.881 204.776 300.716 204.021 300.716 203.171ZM307.256 203.201C307.256 202.691 307.156 202.256 306.956 201.896C306.756 201.526 306.486 201.246 306.146 201.056C305.806 200.856 305.441 200.756 305.051 200.756C304.661 200.756 304.301 200.851 303.971 201.041C303.641 201.231 303.371 201.511 303.161 201.881C302.961 202.241 302.861 202.671 302.861 203.171C302.861 203.671 302.961 204.111 303.161 204.491C303.371 204.861 303.641 205.146 303.971 205.346C304.311 205.546 304.671 205.646 305.051 205.646C305.441 205.646 305.806 205.551 306.146 205.361C306.486 205.161 306.756 204.881 306.956 204.521C307.156 204.151 307.256 203.711 307.256 203.201ZM321.742 198.926C322.762 198.926 323.582 199.241 324.202 199.871C324.832 200.491 325.147 201.361 325.147 202.481V207.356H323.047V202.766C323.047 202.116 322.882 201.621 322.552 201.281C322.222 200.931 321.772 200.756 321.202 200.756C320.632 200.756 320.177 200.931 319.837 201.281C319.507 201.621 319.342 202.116 319.342 202.766V207.356H317.242V202.766C317.242 202.116 317.077 201.621 316.747 201.281C316.417 200.931 315.967 200.756 315.397 200.756C314.817 200.756 314.357 200.931 314.017 201.281C313.687 201.621 313.522 202.116 313.522 202.766V207.356H311.422V199.046H313.522V200.051C313.792 199.701 314.137 199.426 314.557 199.226C314.987 199.026 315.457 198.926 315.967 198.926C316.617 198.926 317.197 199.066 317.707 199.346C318.217 199.616 318.612 200.006 318.892 200.516C319.162 200.036 319.552 199.651 320.062 199.361C320.582 199.071 321.142 198.926 321.742 198.926ZM334.984 199.046V207.356H332.869V206.306C332.599 206.666 332.244 206.951 331.804 207.161C331.374 207.361 330.904 207.461 330.394 207.461C329.744 207.461 329.169 207.326 328.669 207.056C328.169 206.776 327.774 206.371 327.484 205.841C327.204 205.301 327.064 204.661 327.064 203.921V199.046H329.164V203.621C329.164 204.281 329.329 204.791 329.659 205.151C329.989 205.501 330.439 205.676 331.009 205.676C331.589 205.676 332.044 205.501 332.374 205.151C332.704 204.791 332.869 204.281 332.869 203.621V199.046H334.984Z" fill="#0A2647"/>
</svg>
